<mxfile host="app.diagrams.net" agent="Mozilla/5.0 (X11; Linux x86_64) AppleWebKit/537.36 (KHTML, like Gecko) Chrome/126.0.0.0 Safari/537.36" version="24.7.17">
  <diagram name="PÃ¡gina-1" id="Sm8kE4St502GiKskpe_q">
    <mxGraphModel dx="1621" dy="724" grid="1" gridSize="10" guides="1" tooltips="1" connect="1" arrows="1" fold="1" page="1" pageScale="1" pageWidth="827" pageHeight="1169" math="0" shadow="0">
      <root>
        <mxCell id="0" />
        <mxCell id="1" parent="0" />
        <mxCell id="kLbPWelimPlIm20K7w4g-1" value="cliente" style="rounded=0;whiteSpace=wrap;html=1;" vertex="1" parent="1">
          <mxGeometry x="30" y="330" width="90" height="30" as="geometry" />
        </mxCell>
        <mxCell id="kLbPWelimPlIm20K7w4g-2" value="Articulos" style="rounded=0;whiteSpace=wrap;html=1;" vertex="1" parent="1">
          <mxGeometry x="32.5" y="600" width="90" height="30" as="geometry" />
        </mxCell>
        <mxCell id="kLbPWelimPlIm20K7w4g-5" value="fabricas" style="rounded=0;whiteSpace=wrap;html=1;" vertex="1" parent="1">
          <mxGeometry x="590" y="619" width="90" height="30" as="geometry" />
        </mxCell>
        <mxCell id="kLbPWelimPlIm20K7w4g-6" value="" style="ellipse;whiteSpace=wrap;html=1;fillColor=#000000;" vertex="1" parent="1">
          <mxGeometry x="30" y="260" width="40" height="40" as="geometry" />
        </mxCell>
        <mxCell id="kLbPWelimPlIm20K7w4g-7" value="" style="ellipse;whiteSpace=wrap;html=1;" vertex="1" parent="1">
          <mxGeometry x="100" y="260" width="40" height="40" as="geometry" />
        </mxCell>
        <mxCell id="kLbPWelimPlIm20K7w4g-8" value="N cliente" style="text;html=1;align=center;verticalAlign=middle;resizable=0;points=[];autosize=1;strokeColor=none;fillColor=none;" vertex="1" parent="1">
          <mxGeometry x="5" y="218" width="70" height="30" as="geometry" />
        </mxCell>
        <mxCell id="kLbPWelimPlIm20K7w4g-9" value="dirrecion" style="text;html=1;align=center;verticalAlign=middle;resizable=0;points=[];autosize=1;strokeColor=none;fillColor=none;" vertex="1" parent="1">
          <mxGeometry x="85" y="208" width="70" height="30" as="geometry" />
        </mxCell>
        <mxCell id="kLbPWelimPlIm20K7w4g-11" value="" style="ellipse;whiteSpace=wrap;html=1;" vertex="1" parent="1">
          <mxGeometry x="70" y="384.5" width="30" height="29" as="geometry" />
        </mxCell>
        <mxCell id="kLbPWelimPlIm20K7w4g-12" value="Saldo" style="text;html=1;align=center;verticalAlign=middle;resizable=0;points=[];autosize=1;strokeColor=none;fillColor=none;" vertex="1" parent="1">
          <mxGeometry x="-7.5" y="420" width="50" height="30" as="geometry" />
        </mxCell>
        <mxCell id="kLbPWelimPlIm20K7w4g-13" value="limite" style="text;html=1;align=center;verticalAlign=middle;resizable=0;points=[];autosize=1;strokeColor=none;fillColor=none;" vertex="1" parent="1">
          <mxGeometry x="60" y="420" width="50" height="30" as="geometry" />
        </mxCell>
        <mxCell id="kLbPWelimPlIm20K7w4g-14" value="" style="ellipse;whiteSpace=wrap;html=1;" vertex="1" parent="1">
          <mxGeometry x="2.5" y="380" width="30" height="29" as="geometry" />
        </mxCell>
        <mxCell id="kLbPWelimPlIm20K7w4g-15" style="edgeStyle=orthogonalEdgeStyle;rounded=0;orthogonalLoop=1;jettySize=auto;html=1;exitX=1;exitY=1;exitDx=0;exitDy=0;entryX=0;entryY=1;entryDx=0;entryDy=0;" edge="1" parent="1" source="kLbPWelimPlIm20K7w4g-14" target="kLbPWelimPlIm20K7w4g-14">
          <mxGeometry relative="1" as="geometry" />
        </mxCell>
        <mxCell id="kLbPWelimPlIm20K7w4g-16" value="" style="ellipse;whiteSpace=wrap;html=1;" vertex="1" parent="1">
          <mxGeometry x="125" y="380" width="30" height="29" as="geometry" />
        </mxCell>
        <mxCell id="kLbPWelimPlIm20K7w4g-18" value="descuento" style="text;html=1;align=center;verticalAlign=middle;resizable=0;points=[];autosize=1;strokeColor=none;fillColor=none;" vertex="1" parent="1">
          <mxGeometry x="110" y="413.5" width="80" height="30" as="geometry" />
        </mxCell>
        <mxCell id="kLbPWelimPlIm20K7w4g-19" value="" style="ellipse;whiteSpace=wrap;html=1;fillColor=#000000;" vertex="1" parent="1">
          <mxGeometry x="35" y="649" width="30" height="29" as="geometry" />
        </mxCell>
        <mxCell id="kLbPWelimPlIm20K7w4g-20" value="n articulol" style="text;html=1;align=center;verticalAlign=middle;resizable=0;points=[];autosize=1;strokeColor=none;fillColor=none;" vertex="1" parent="1">
          <mxGeometry x="2.5" y="690" width="70" height="30" as="geometry" />
        </mxCell>
        <mxCell id="kLbPWelimPlIm20K7w4g-21" value="" style="ellipse;whiteSpace=wrap;html=1;" vertex="1" parent="1">
          <mxGeometry x="95" y="649" width="30" height="29" as="geometry" />
        </mxCell>
        <mxCell id="kLbPWelimPlIm20K7w4g-22" value="existencias" style="text;html=1;align=center;verticalAlign=middle;resizable=0;points=[];autosize=1;strokeColor=none;fillColor=none;" vertex="1" parent="1">
          <mxGeometry x="80" y="690" width="80" height="30" as="geometry" />
        </mxCell>
        <mxCell id="kLbPWelimPlIm20K7w4g-23" value="" style="ellipse;whiteSpace=wrap;html=1;" vertex="1" parent="1">
          <mxGeometry x="30" y="510" width="30" height="29" as="geometry" />
        </mxCell>
        <mxCell id="kLbPWelimPlIm20K7w4g-24" value="descripciones" style="text;html=1;align=center;verticalAlign=middle;resizable=0;points=[];autosize=1;strokeColor=none;fillColor=none;" vertex="1" parent="1">
          <mxGeometry x="-10" y="470" width="100" height="30" as="geometry" />
        </mxCell>
        <mxCell id="kLbPWelimPlIm20K7w4g-25" value="" style="ellipse;whiteSpace=wrap;html=1;" vertex="1" parent="1">
          <mxGeometry x="125" y="510" width="30" height="29" as="geometry" />
        </mxCell>
        <mxCell id="kLbPWelimPlIm20K7w4g-26" value="Fabricas" style="text;html=1;align=center;verticalAlign=middle;resizable=0;points=[];autosize=1;strokeColor=none;fillColor=none;" vertex="1" parent="1">
          <mxGeometry x="105" y="470" width="70" height="30" as="geometry" />
        </mxCell>
        <mxCell id="kLbPWelimPlIm20K7w4g-150" value="pedidos" style="rounded=0;whiteSpace=wrap;html=1;" vertex="1" parent="1">
          <mxGeometry x="590" y="330" width="90" height="30" as="geometry" />
        </mxCell>
        <mxCell id="kLbPWelimPlIm20K7w4g-151" value="" style="ellipse;whiteSpace=wrap;html=1;fillColor=#000000;" vertex="1" parent="1">
          <mxGeometry x="585" y="678" width="30" height="29" as="geometry" />
        </mxCell>
        <mxCell id="kLbPWelimPlIm20K7w4g-152" value="&amp;lt;num frabrica" style="text;html=1;align=center;verticalAlign=middle;resizable=0;points=[];autosize=1;strokeColor=none;fillColor=none;" vertex="1" parent="1">
          <mxGeometry x="550" y="720" width="100" height="30" as="geometry" />
        </mxCell>
        <mxCell id="kLbPWelimPlIm20K7w4g-153" value="" style="ellipse;whiteSpace=wrap;html=1;" vertex="1" parent="1">
          <mxGeometry x="660" y="680" width="30" height="29" as="geometry" />
        </mxCell>
        <mxCell id="kLbPWelimPlIm20K7w4g-154" value="telefono" style="text;html=1;align=center;verticalAlign=middle;resizable=0;points=[];autosize=1;strokeColor=none;fillColor=none;" vertex="1" parent="1">
          <mxGeometry x="640" y="709" width="70" height="30" as="geometry" />
        </mxCell>
        <mxCell id="kLbPWelimPlIm20K7w4g-156" value="Hace" style="rhombus;whiteSpace=wrap;html=1;" vertex="1" parent="1">
          <mxGeometry x="310" y="325" width="80" height="40" as="geometry" />
        </mxCell>
        <mxCell id="kLbPWelimPlIm20K7w4g-157" value="" style="endArrow=none;html=1;rounded=0;exitX=1;exitY=0.5;exitDx=0;exitDy=0;entryX=0;entryY=0.5;entryDx=0;entryDy=0;" edge="1" parent="1" source="kLbPWelimPlIm20K7w4g-1" target="kLbPWelimPlIm20K7w4g-156">
          <mxGeometry width="50" height="50" relative="1" as="geometry">
            <mxPoint x="190" y="350" as="sourcePoint" />
            <mxPoint x="240" y="300" as="targetPoint" />
          </mxGeometry>
        </mxCell>
        <mxCell id="kLbPWelimPlIm20K7w4g-158" value="" style="endArrow=none;html=1;rounded=0;exitX=1;exitY=0.5;exitDx=0;exitDy=0;entryX=0;entryY=0.5;entryDx=0;entryDy=0;" edge="1" parent="1" target="kLbPWelimPlIm20K7w4g-150">
          <mxGeometry width="50" height="50" relative="1" as="geometry">
            <mxPoint x="390" y="344.5" as="sourcePoint" />
            <mxPoint x="580" y="344.5" as="targetPoint" />
          </mxGeometry>
        </mxCell>
        <mxCell id="kLbPWelimPlIm20K7w4g-160" value="contiene" style="rhombus;whiteSpace=wrap;html=1;" vertex="1" parent="1">
          <mxGeometry x="320" y="500" width="80" height="40" as="geometry" />
        </mxCell>
        <mxCell id="kLbPWelimPlIm20K7w4g-162" value="" style="endArrow=none;html=1;rounded=0;exitX=1;exitY=0.5;exitDx=0;exitDy=0;entryX=0.5;entryY=1;entryDx=0;entryDy=0;" edge="1" parent="1" source="kLbPWelimPlIm20K7w4g-160" target="kLbPWelimPlIm20K7w4g-150">
          <mxGeometry width="50" height="50" relative="1" as="geometry">
            <mxPoint x="430" y="500" as="sourcePoint" />
            <mxPoint x="480" y="450" as="targetPoint" />
          </mxGeometry>
        </mxCell>
        <mxCell id="kLbPWelimPlIm20K7w4g-163" value="" style="endArrow=none;html=1;rounded=0;exitX=1;exitY=0;exitDx=0;exitDy=0;entryX=0;entryY=0.5;entryDx=0;entryDy=0;" edge="1" parent="1" source="kLbPWelimPlIm20K7w4g-2" target="kLbPWelimPlIm20K7w4g-160">
          <mxGeometry width="50" height="50" relative="1" as="geometry">
            <mxPoint x="140" y="600" as="sourcePoint" />
            <mxPoint x="190" y="550" as="targetPoint" />
          </mxGeometry>
        </mxCell>
        <mxCell id="kLbPWelimPlIm20K7w4g-164" value="crea" style="rhombus;whiteSpace=wrap;html=1;" vertex="1" parent="1">
          <mxGeometry x="334" y="614" width="80" height="40" as="geometry" />
        </mxCell>
        <mxCell id="kLbPWelimPlIm20K7w4g-165" value="" style="endArrow=none;html=1;rounded=0;exitX=1;exitY=0.5;exitDx=0;exitDy=0;entryX=0;entryY=0.5;entryDx=0;entryDy=0;" edge="1" parent="1" source="kLbPWelimPlIm20K7w4g-164" target="kLbPWelimPlIm20K7w4g-5">
          <mxGeometry width="50" height="50" relative="1" as="geometry">
            <mxPoint x="460" y="630" as="sourcePoint" />
            <mxPoint x="510" y="580" as="targetPoint" />
          </mxGeometry>
        </mxCell>
        <mxCell id="kLbPWelimPlIm20K7w4g-166" value="" style="endArrow=none;html=1;rounded=0;entryX=0;entryY=0.5;entryDx=0;entryDy=0;exitX=1;exitY=1;exitDx=0;exitDy=0;" edge="1" parent="1" source="kLbPWelimPlIm20K7w4g-2" target="kLbPWelimPlIm20K7w4g-164">
          <mxGeometry width="50" height="50" relative="1" as="geometry">
            <mxPoint x="210" y="640" as="sourcePoint" />
            <mxPoint x="260" y="590" as="targetPoint" />
          </mxGeometry>
        </mxCell>
        <mxCell id="kLbPWelimPlIm20K7w4g-167" value="1,1" style="text;html=1;align=center;verticalAlign=middle;resizable=0;points=[];autosize=1;strokeColor=none;fillColor=none;" vertex="1" parent="1">
          <mxGeometry x="120" y="318" width="40" height="30" as="geometry" />
        </mxCell>
        <mxCell id="kLbPWelimPlIm20K7w4g-168" value="1,n" style="text;html=1;align=center;verticalAlign=middle;resizable=0;points=[];autosize=1;strokeColor=none;fillColor=none;" vertex="1" parent="1">
          <mxGeometry x="550" y="318" width="40" height="30" as="geometry" />
        </mxCell>
        <mxCell id="kLbPWelimPlIm20K7w4g-169" value="1,n" style="text;html=1;align=center;verticalAlign=middle;resizable=0;points=[];autosize=1;strokeColor=none;fillColor=none;" vertex="1" parent="1">
          <mxGeometry x="120" y="558" width="40" height="30" as="geometry" />
        </mxCell>
        <mxCell id="kLbPWelimPlIm20K7w4g-170" value="0,n" style="text;html=1;align=center;verticalAlign=middle;resizable=0;points=[];autosize=1;strokeColor=none;fillColor=none;" vertex="1" parent="1">
          <mxGeometry x="615" y="360" width="40" height="30" as="geometry" />
        </mxCell>
        <mxCell id="kLbPWelimPlIm20K7w4g-171" value="" style="swimlane;startSize=0;" vertex="1" parent="1">
          <mxGeometry x="760" y="270" width="200" height="200" as="geometry" />
        </mxCell>
        <mxCell id="kLbPWelimPlIm20K7w4g-172" value="" style="endArrow=none;html=1;rounded=0;exitX=0.5;exitY=0;exitDx=0;exitDy=0;" edge="1" parent="1" source="kLbPWelimPlIm20K7w4g-151">
          <mxGeometry width="50" height="50" relative="1" as="geometry">
            <mxPoint x="540" y="710" as="sourcePoint" />
            <mxPoint x="600" y="650" as="targetPoint" />
          </mxGeometry>
        </mxCell>
        <mxCell id="kLbPWelimPlIm20K7w4g-173" value="" style="endArrow=none;html=1;rounded=0;exitX=0.5;exitY=0;exitDx=0;exitDy=0;entryX=0.889;entryY=1.033;entryDx=0;entryDy=0;entryPerimeter=0;" edge="1" parent="1" source="kLbPWelimPlIm20K7w4g-153" target="kLbPWelimPlIm20K7w4g-5">
          <mxGeometry width="50" height="50" relative="1" as="geometry">
            <mxPoint x="700" y="670" as="sourcePoint" />
            <mxPoint x="750" y="620" as="targetPoint" />
          </mxGeometry>
        </mxCell>
        <mxCell id="kLbPWelimPlIm20K7w4g-174" value="" style="endArrow=none;html=1;rounded=0;exitX=0.5;exitY=1;exitDx=0;exitDy=0;entryX=0.833;entryY=-0.1;entryDx=0;entryDy=0;entryPerimeter=0;" edge="1" parent="1" source="kLbPWelimPlIm20K7w4g-7" target="kLbPWelimPlIm20K7w4g-1">
          <mxGeometry width="50" height="50" relative="1" as="geometry">
            <mxPoint x="180" y="310" as="sourcePoint" />
            <mxPoint x="230" y="260" as="targetPoint" />
          </mxGeometry>
        </mxCell>
        <mxCell id="kLbPWelimPlIm20K7w4g-175" value="" style="endArrow=none;html=1;rounded=0;entryX=0.5;entryY=1;entryDx=0;entryDy=0;exitX=0.111;exitY=0;exitDx=0;exitDy=0;exitPerimeter=0;" edge="1" parent="1" source="kLbPWelimPlIm20K7w4g-1" target="kLbPWelimPlIm20K7w4g-6">
          <mxGeometry width="50" height="50" relative="1" as="geometry">
            <mxPoint x="-10" y="360" as="sourcePoint" />
            <mxPoint x="40" y="310" as="targetPoint" />
          </mxGeometry>
        </mxCell>
        <mxCell id="kLbPWelimPlIm20K7w4g-177" value="" style="endArrow=none;html=1;rounded=0;exitX=1;exitY=0;exitDx=0;exitDy=0;entryX=0.25;entryY=1;entryDx=0;entryDy=0;" edge="1" parent="1" source="kLbPWelimPlIm20K7w4g-14" target="kLbPWelimPlIm20K7w4g-1">
          <mxGeometry width="50" height="50" relative="1" as="geometry">
            <mxPoint x="140" y="400" as="sourcePoint" />
            <mxPoint x="190" y="350" as="targetPoint" />
          </mxGeometry>
        </mxCell>
        <mxCell id="kLbPWelimPlIm20K7w4g-178" value="" style="endArrow=none;html=1;rounded=0;exitX=0.5;exitY=0;exitDx=0;exitDy=0;entryX=0.75;entryY=1;entryDx=0;entryDy=0;" edge="1" parent="1" source="kLbPWelimPlIm20K7w4g-11" target="kLbPWelimPlIm20K7w4g-1">
          <mxGeometry width="50" height="50" relative="1" as="geometry">
            <mxPoint x="100" y="390" as="sourcePoint" />
            <mxPoint x="150" y="340" as="targetPoint" />
          </mxGeometry>
        </mxCell>
        <mxCell id="kLbPWelimPlIm20K7w4g-179" value="" style="endArrow=none;html=1;rounded=0;exitX=0.5;exitY=0;exitDx=0;exitDy=0;entryX=1;entryY=1;entryDx=0;entryDy=0;" edge="1" parent="1" source="kLbPWelimPlIm20K7w4g-16" target="kLbPWelimPlIm20K7w4g-1">
          <mxGeometry width="50" height="50" relative="1" as="geometry">
            <mxPoint x="130" y="400" as="sourcePoint" />
            <mxPoint x="180" y="350" as="targetPoint" />
          </mxGeometry>
        </mxCell>
        <mxCell id="kLbPWelimPlIm20K7w4g-180" value="" style="endArrow=none;html=1;rounded=0;entryX=0.5;entryY=1;entryDx=0;entryDy=0;exitX=0.089;exitY=-0.067;exitDx=0;exitDy=0;exitPerimeter=0;" edge="1" parent="1" source="kLbPWelimPlIm20K7w4g-2" target="kLbPWelimPlIm20K7w4g-23">
          <mxGeometry width="50" height="50" relative="1" as="geometry">
            <mxPoint x="-20" y="600" as="sourcePoint" />
            <mxPoint x="30" y="550" as="targetPoint" />
          </mxGeometry>
        </mxCell>
        <mxCell id="kLbPWelimPlIm20K7w4g-181" value="" style="endArrow=none;html=1;rounded=0;entryX=0.5;entryY=1;entryDx=0;entryDy=0;exitX=0.75;exitY=0;exitDx=0;exitDy=0;" edge="1" parent="1" source="kLbPWelimPlIm20K7w4g-2" target="kLbPWelimPlIm20K7w4g-25">
          <mxGeometry width="50" height="50" relative="1" as="geometry">
            <mxPoint x="70" y="590" as="sourcePoint" />
            <mxPoint x="120" y="540" as="targetPoint" />
          </mxGeometry>
        </mxCell>
        <mxCell id="kLbPWelimPlIm20K7w4g-183" value="" style="endArrow=none;html=1;rounded=0;exitX=0.5;exitY=0;exitDx=0;exitDy=0;entryX=0.178;entryY=1.133;entryDx=0;entryDy=0;entryPerimeter=0;" edge="1" parent="1" source="kLbPWelimPlIm20K7w4g-19" target="kLbPWelimPlIm20K7w4g-2">
          <mxGeometry width="50" height="50" relative="1" as="geometry">
            <mxPoint x="50" y="640" as="sourcePoint" />
            <mxPoint x="100" y="590" as="targetPoint" />
          </mxGeometry>
        </mxCell>
        <mxCell id="kLbPWelimPlIm20K7w4g-184" value="" style="endArrow=none;html=1;rounded=0;exitX=0.5;exitY=0;exitDx=0;exitDy=0;entryX=0.878;entryY=1.1;entryDx=0;entryDy=0;entryPerimeter=0;" edge="1" parent="1" source="kLbPWelimPlIm20K7w4g-21" target="kLbPWelimPlIm20K7w4g-2">
          <mxGeometry width="50" height="50" relative="1" as="geometry">
            <mxPoint x="100" y="650" as="sourcePoint" />
            <mxPoint x="150" y="600" as="targetPoint" />
          </mxGeometry>
        </mxCell>
        <mxCell id="kLbPWelimPlIm20K7w4g-186" value="" style="endArrow=none;html=1;rounded=0;exitX=1;exitY=1;exitDx=0;exitDy=0;" edge="1" parent="1" source="kLbPWelimPlIm20K7w4g-160" target="kLbPWelimPlIm20K7w4g-187">
          <mxGeometry width="50" height="50" relative="1" as="geometry">
            <mxPoint x="400" y="570" as="sourcePoint" />
            <mxPoint x="410" y="540" as="targetPoint" />
          </mxGeometry>
        </mxCell>
        <mxCell id="kLbPWelimPlIm20K7w4g-187" value="Canidad" style="text;html=1;align=center;verticalAlign=middle;resizable=0;points=[];autosize=1;strokeColor=none;fillColor=none;" vertex="1" parent="1">
          <mxGeometry x="400" y="528" width="70" height="30" as="geometry" />
        </mxCell>
        <mxCell id="kLbPWelimPlIm20K7w4g-189" value="1,n" style="text;html=1;align=center;verticalAlign=middle;resizable=0;points=[];autosize=1;strokeColor=none;fillColor=none;" vertex="1" parent="1">
          <mxGeometry x="540" y="628" width="40" height="30" as="geometry" />
        </mxCell>
        <mxCell id="kLbPWelimPlIm20K7w4g-191" value="1,n" style="text;html=1;align=center;verticalAlign=middle;resizable=0;points=[];autosize=1;strokeColor=none;fillColor=none;" vertex="1" parent="1">
          <mxGeometry x="130" y="628" width="40" height="30" as="geometry" />
        </mxCell>
        <mxCell id="kLbPWelimPlIm20K7w4g-192" value="pedidos" style="rounded=0;whiteSpace=wrap;html=1;" vertex="1" parent="1">
          <mxGeometry x="470" y="865" width="90" height="30" as="geometry" />
        </mxCell>
        <mxCell id="kLbPWelimPlIm20K7w4g-193" value="Si" style="rhombus;whiteSpace=wrap;html=1;" vertex="1" parent="1">
          <mxGeometry x="315" y="860" width="90" height="40" as="geometry" />
        </mxCell>
        <mxCell id="kLbPWelimPlIm20K7w4g-195" value="LIn_pedido" style="rounded=0;whiteSpace=wrap;html=1;" vertex="1" parent="1">
          <mxGeometry x="155" y="865" width="90" height="30" as="geometry" />
        </mxCell>
        <mxCell id="kLbPWelimPlIm20K7w4g-196" value="" style="endArrow=none;html=1;rounded=0;exitX=1;exitY=0.5;exitDx=0;exitDy=0;entryX=0;entryY=0.5;entryDx=0;entryDy=0;" edge="1" parent="1" source="kLbPWelimPlIm20K7w4g-195" target="kLbPWelimPlIm20K7w4g-193">
          <mxGeometry width="50" height="50" relative="1" as="geometry">
            <mxPoint x="260" y="880" as="sourcePoint" />
            <mxPoint x="310" y="830" as="targetPoint" />
          </mxGeometry>
        </mxCell>
        <mxCell id="kLbPWelimPlIm20K7w4g-197" value="" style="endArrow=none;html=1;rounded=0;exitX=1;exitY=0.5;exitDx=0;exitDy=0;entryX=0;entryY=0.5;entryDx=0;entryDy=0;" edge="1" parent="1" source="kLbPWelimPlIm20K7w4g-193" target="kLbPWelimPlIm20K7w4g-192">
          <mxGeometry width="50" height="50" relative="1" as="geometry">
            <mxPoint x="420" y="890" as="sourcePoint" />
            <mxPoint x="470" y="840" as="targetPoint" />
          </mxGeometry>
        </mxCell>
        <mxCell id="kLbPWelimPlIm20K7w4g-198" value="1,1" style="text;html=1;align=center;verticalAlign=middle;resizable=0;points=[];autosize=1;strokeColor=none;fillColor=none;" vertex="1" parent="1">
          <mxGeometry x="440" y="878" width="40" height="30" as="geometry" />
        </mxCell>
        <mxCell id="kLbPWelimPlIm20K7w4g-199" value="1,1" style="text;html=1;align=center;verticalAlign=middle;resizable=0;points=[];autosize=1;strokeColor=none;fillColor=none;" vertex="1" parent="1">
          <mxGeometry x="240" y="860" width="40" height="30" as="geometry" />
        </mxCell>
        <mxCell id="kLbPWelimPlIm20K7w4g-200" value="1,1" style="text;html=1;align=center;verticalAlign=middle;resizable=0;points=[];autosize=1;strokeColor=none;fillColor=none;" vertex="1" parent="1">
          <mxGeometry x="330" y="828" width="40" height="30" as="geometry" />
        </mxCell>
        <mxCell id="kLbPWelimPlIm20K7w4g-206" value="tiene" style="rhombus;whiteSpace=wrap;html=1;" vertex="1" parent="1">
          <mxGeometry x="30" y="868" width="90" height="40" as="geometry" />
        </mxCell>
        <mxCell id="kLbPWelimPlIm20K7w4g-209" value="" style="endArrow=none;html=1;rounded=0;exitX=1;exitY=0.5;exitDx=0;exitDy=0;entryX=0;entryY=0.75;entryDx=0;entryDy=0;" edge="1" parent="1" source="kLbPWelimPlIm20K7w4g-206" target="kLbPWelimPlIm20K7w4g-195">
          <mxGeometry width="50" height="50" relative="1" as="geometry">
            <mxPoint x="120" y="940" as="sourcePoint" />
            <mxPoint x="170" y="890" as="targetPoint" />
          </mxGeometry>
        </mxCell>
        <mxCell id="kLbPWelimPlIm20K7w4g-210" value="fecha" style="text;html=1;align=center;verticalAlign=middle;resizable=0;points=[];autosize=1;strokeColor=none;fillColor=none;" vertex="1" parent="1">
          <mxGeometry x="470" y="900" width="50" height="30" as="geometry" />
        </mxCell>
        <mxCell id="kLbPWelimPlIm20K7w4g-211" value="dir_envio" style="text;html=1;align=center;verticalAlign=middle;resizable=0;points=[];autosize=1;strokeColor=none;fillColor=none;" vertex="1" parent="1">
          <mxGeometry x="515" y="898" width="70" height="30" as="geometry" />
        </mxCell>
        <mxCell id="kLbPWelimPlIm20K7w4g-212" value="Cantidad" style="text;html=1;align=center;verticalAlign=middle;resizable=0;points=[];autosize=1;strokeColor=none;fillColor=none;" vertex="1" parent="1">
          <mxGeometry x="135" y="898" width="70" height="30" as="geometry" />
        </mxCell>
        <mxCell id="kLbPWelimPlIm20K7w4g-213" value="DIrc" style="text;html=1;align=center;verticalAlign=middle;resizable=0;points=[];autosize=1;strokeColor=none;fillColor=none;" vertex="1" parent="1">
          <mxGeometry x="190" y="898" width="50" height="30" as="geometry" />
        </mxCell>
        <mxCell id="kLbPWelimPlIm20K7w4g-214" value="Cod_envio" style="text;html=1;align=center;verticalAlign=middle;resizable=0;points=[];autosize=1;strokeColor=none;fillColor=none;" vertex="1" parent="1">
          <mxGeometry x="450" y="838" width="80" height="30" as="geometry" />
        </mxCell>
        <mxCell id="kLbPWelimPlIm20K7w4g-215" value="" style="ellipse;whiteSpace=wrap;html=1;fillColor=#000000;" vertex="1" parent="1">
          <mxGeometry x="530" y="828" width="30" height="29" as="geometry" />
        </mxCell>
        <mxCell id="kLbPWelimPlIm20K7w4g-216" value="NUm_Envio" style="text;html=1;align=center;verticalAlign=middle;resizable=0;points=[];autosize=1;strokeColor=none;fillColor=none;" vertex="1" parent="1">
          <mxGeometry x="125" y="828" width="90" height="30" as="geometry" />
        </mxCell>
        <mxCell id="kLbPWelimPlIm20K7w4g-217" value="" style="ellipse;whiteSpace=wrap;html=1;fillColor=#000000;" vertex="1" parent="1">
          <mxGeometry x="220" y="828" width="30" height="29" as="geometry" />
        </mxCell>
        <mxCell id="kLbPWelimPlIm20K7w4g-218" value="PRecio" style="text;html=1;align=center;verticalAlign=middle;resizable=0;points=[];autosize=1;strokeColor=none;fillColor=none;" vertex="1" parent="1">
          <mxGeometry x="220" y="898" width="60" height="30" as="geometry" />
        </mxCell>
        <mxCell id="kLbPWelimPlIm20K7w4g-220" value="" style="endArrow=none;html=1;rounded=0;exitX=0.5;exitY=0;exitDx=0;exitDy=0;entryX=0.5;entryY=1;entryDx=0;entryDy=0;" edge="1" parent="1" source="kLbPWelimPlIm20K7w4g-206" target="kLbPWelimPlIm20K7w4g-2">
          <mxGeometry width="50" height="50" relative="1" as="geometry">
            <mxPoint x="80" y="900" as="sourcePoint" />
            <mxPoint x="130" y="850" as="targetPoint" />
          </mxGeometry>
        </mxCell>
      </root>
    </mxGraphModel>
  </diagram>
</mxfile>
